<?xml version="1.0" encoding="UTF-8"?>
<svg width="33px" height="33px" viewBox="0 0 33 33" version="1.1" xmlns="http://www.w3.org/2000/svg" xmlns:xlink="http://www.w3.org/1999/xlink">
    <title>475F3708-EB8F-47AC-A82E-D685EA3D6BFF</title>
    <g id="Currrent" stroke="none" stroke-width="1" fill="none" fill-rule="evenodd">
        <g id="Desktop-Dashboard---Iteration-1-(profile-incomplete)" transform="translate(-102.000000, -294.000000)" fill="#EBAD08" fill-rule="nonzero">
            <g id="header-welcome-bar" transform="translate(82.000000, 281.000000)">
                <path d="M36.5050532,13.0000046 C29.3918932,12.994689 23.076836,17.5493958 20.8387067,24.2992918 C18.6005774,31.0491878 20.9437634,38.4731086 26.6516649,42.7164986 C32.4968211,47.0945005 40.5297901,47.0945005 46.3749462,42.7164986 C52.0678442,38.4629004 54.3976737,31.0436601 52.1580346,24.3005061 C49.9183956,17.5573521 43.612288,13.0047275 36.5050532,13.0000046 Z M36.5,19.2658266 C39.1530641,19.2658266 41.3037975,21.4165596 41.3037975,24.0696233 C41.3037975,26.7226871 39.1530641,28.8734201 36.5,28.8734201 C33.8469359,28.8734201 31.6962025,26.7226871 31.6962025,24.0696233 C31.7041163,21.4198445 33.8502208,19.2737403 36.5,19.2658266 L36.5,19.2658266 Z M36.4919017,42.6582283 C33.1442232,42.6551805 29.9280248,41.369399 27.5189873,39.0710093 C28.9848228,35.4411695 32.5360853,33.0576991 36.4890484,33.0506347 C40.4420115,33.0436017 44.0019455,35.4143919 45.4810127,39.0389806 C43.0774821,41.3595605 39.8512618,42.6585199 36.4919017,42.6582283 L36.4919017,42.6582283 Z" id="Shape"></path>
            </g>
        </g>
    </g>
</svg>