<svg width="27" height="23" viewBox="0 0 27 23" xmlns="http://www.w3.org/2000/svg">
    <defs>
        <filter x="-32.6%" y="-24.1%" width="168.5%" height="148.3%" filterUnits="objectBoundingBox" id="rhx29htt3a">
            <feOffset dx="21" dy="19" in="SourceAlpha" result="shadowOffsetOuter1"/>
            <feGaussianBlur stdDeviation="24.5" in="shadowOffsetOuter1" result="shadowBlurOuter1"/>
            <feColorMatrix values="0 0 0 0 0 0 0 0 0 0 0 0 0 0 0 0 0 0 0.09 0" in="shadowBlurOuter1" result="shadowMatrixOuter1"/>
            <feMerge>
                <feMergeNode in="shadowMatrixOuter1"/>
                <feMergeNode in="SourceGraphic"/>
            </feMerge>
        </filter>
    </defs>
    <g filter="url(#rhx29htt3a)" transform="translate(-124 -336)" fill="#000" stroke="#000" opacity=".5">
        <path d="M146.465 352.339h-3.557a.565.565 0 0 1-.553-.577V339.08c0-1.412 1.19-2.549 2.546-2.417a2.307 2.307 0 0 1 1.431.7c.441.45.686 1.061.686 1.717v12.682a.565.565 0 0 1-.553.577zm-3.004-1.154h2.45V339.08c0-.343-.126-.662-.356-.897a1.207 1.207 0 0 0-.73-.369l-.022-.002c-.039-.005-.078-.003-.116-.003-.676 0-1.226.57-1.226 1.271v12.105z"/>
        <path d="M149.991 342.568h-7.084a.565.565 0 0 1-.553-.577c0-.319.248-.577.553-.577h7.084c.306 0 .553.258.553.577a.565.565 0 0 1-.553.577zM128.425 342.568h-3.87a.565.565 0 0 1-.554-.577c0-.319.247-.577.553-.577h3.87c.307 0 .554.258.554.577a.565.565 0 0 1-.553.577zM144.87 337.815a.666.666 0 0 1-.067-.003.547.547 0 0 0-.057-.003h-.06a.565.565 0 0 1-.552-.577c0-.319.247-.577.553-.577h.183c.305 0 .553.258.553.577v.006a.565.565 0 0 1-.553.577z"/>
        <path d="M149.99 344.095a.565.565 0 0 1-.553-.577v-3.06c0-.319.247-.577.553-.577.306 0 .553.258.553.577v3.06a.565.565 0 0 1-.553.577zM124.553 344.095a.565.565 0 0 1-.553-.577v-3.06c0-.319.247-.577.553-.577.306 0 .553.258.553.577v3.06a.565.565 0 0 1-.553.577zM142.908 355.068h-14.48a.565.565 0 0 1-.554-.577v-14.53c0-1.824 1.421-3.306 3.168-3.306h13.645c.305 0 .552.258.552.577a.565.565 0 0 1-.552.577c-.676 0-1.226.57-1.226 1.271v15.41a.565.565 0 0 1-.553.578zm-13.928-1.154h13.375V339.08c0-.466.127-.901.347-1.271h-11.66c-1.137 0-2.062.965-2.062 2.151v13.954z"/>
        <path d="M142.908 358.479h-14.48a.565.565 0 0 1-.554-.577v-3.411c0-.32.247-.577.553-.577h14.481c.306 0 .553.258.553.577v3.41a.565.565 0 0 1-.553.578zm-13.928-1.154h13.375v-2.257H128.98v2.257z"/>
    </g>
</svg>
