<svg width="22" height="17" viewBox="0 0 22 17" xmlns="http://www.w3.org/2000/svg">
    <g fill-rule="nonzero" fill="none">
        <path d="M2.75 0A2.75 2.75 0 0 0 0 2.75v11a2.75 2.75 0 0 0 2.75 2.75h16.5A2.75 2.75 0 0 0 22 13.75v-11A2.75 2.75 0 0 0 19.25 0H2.75zm17.875 2.75v6.875H1.375V2.75A1.375 1.375 0 0 1 2.75 1.375h16.5a1.375 1.375 0 0 1 1.375 1.375zM19.25 15.125H2.75a1.375 1.375 0 0 1-1.375-1.375v-1.375h19.25v1.375a1.375 1.375 0 0 1-1.375 1.375z" fill="#FFF"/>
        <rect fill="#115667" x="1.375" y="1.375" width="19.25" height="13.75" rx="1"/>
        <path d="M15.813 13.75a3.438 3.438 0 1 0 0-6.875 3.438 3.438 0 0 0 0 6.875z" fill="#FFF"/>
        <path d="M11 10.313c0-1.121.544-2.107 1.375-2.734a3.396 3.396 0 0 0-2.063-.704 3.438 3.438 0 1 0 0 6.875 3.397 3.397 0 0 0 2.063-.704A3.418 3.418 0 0 1 11 10.313z" fill="#FFF"/>
    </g>
</svg>
