<svg width="28" height="15" viewBox="0 0 28 15" xmlns="http://www.w3.org/2000/svg">
    <g fill-rule="nonzero" fill="none">
        <path d="M3.5 0c-.928 0-1.818.258-2.475.716C.37 1.174 0 1.796 0 2.444v9.778c0 .649.369 1.27 1.025 1.729.657.458 1.547.716 2.475.716h21c.928 0 1.819-.258 2.475-.716.656-.459 1.025-1.08 1.025-1.729V2.444c0-.648-.369-1.27-1.025-1.728C26.319.258 25.428 0 24.5 0h-21zm22.75 2.444v6.112H1.75V2.444c0-.324.184-.635.513-.864.328-.229.773-.358 1.237-.358h21c.464 0 .91.129 1.237.358.329.23.513.54.513.864zm-1.75 11h-21c-.464 0-.91-.128-1.237-.358-.329-.229-.513-.54-.513-.864V11h24.5v1.222c0 .324-.184.635-.513.864-.328.23-.773.358-1.237.358z" fill="#FFF"/>
        <rect fill="#115667" x="1.333" y="1.333" width="25.333" height="12" rx="1"/>
        <path fill="#FFF" d="M5.25 8h17.5v1.333H5.25zM5.25 6.667H14V5.334H5.25z"/>
    </g>
</svg>
