<svg width="84" height="90" viewBox="0 0 84 90" fill="none" xmlns="http://www.w3.org/2000/svg">
<path fill-rule="evenodd" clip-rule="evenodd" d="M14.4395 18.7147C14.1657 18.9008 14.0017 19.2105 14.0017 19.5416V20.6154C14.0017 21.4173 14.8983 21.893 15.5623 21.4435L41.4071 3.94644C41.7457 3.71721 42.1897 3.71721 42.5283 3.94644L68.3731 21.4435C69.0371 21.893 69.9337 21.4173 69.9337 20.6154V19.5416C69.9337 19.2105 69.7697 18.9008 69.4959 18.7147L42.5299 0.382214C42.1906 0.151534 41.7448 0.151535 41.4055 0.382215L14.4395 18.7147Z" fill="white"/>
<path fill-rule="evenodd" clip-rule="evenodd" d="M22.6247 48.772C22.0724 48.772 21.6247 48.3243 21.6247 47.772V21.0156C21.6247 20.6802 21.7929 20.3671 22.0725 20.1819L41.7755 7.13246C42.1063 6.91343 42.5352 6.91058 42.8688 7.1252L63.1657 20.1832C63.4518 20.3672 63.6247 20.684 63.6247 21.0242V47.772C63.6247 48.3243 63.177 48.772 62.6247 48.772H48.2157C47.6634 48.772 47.2157 48.3243 47.2157 47.772V36.6368C47.2157 36.0845 46.768 35.6368 46.2157 35.6368H39.1308C38.5785 35.6368 38.1308 36.0845 38.1308 36.6368V47.772C38.1308 48.3243 37.6831 48.772 37.1308 48.772H22.6247ZM25.6247 45.772C25.0724 45.772 24.6247 45.3243 24.6247 44.772L24.6247 22.3038C24.6247 21.9652 24.7961 21.6495 25.0801 21.4651L41.7818 10.6197C42.1083 10.4077 42.5282 10.4044 42.858 10.6113L60.1562 21.4669C60.4477 21.6498 60.6247 21.9697 60.6247 22.3139V45.756C60.6247 46.3082 60.177 46.756 59.6247 46.756H51.4272C50.875 46.756 50.4272 46.3082 50.4272 45.756V33.7782C50.4272 33.2259 49.9795 32.7782 49.4272 32.7782H35.9184C35.3661 32.7782 34.9184 33.2259 34.9184 33.7782V44.772C34.9184 45.3243 34.4707 45.772 33.9184 45.772H25.6247Z" fill="white"/>
<path d="M12.2356 87.5289V85.2906C12.2356 83.5013 11.6357 81.7636 10.5319 80.3553L3.62965 71.5497C2.24984 69.7893 1.5 67.6201 1.5 65.3834C1.5 58.9831 1.5 45.5612 1.5 41.6201C1.5 36.0649 4.12926 35.5289 5.91614 35.5289C7.70301 35.5289 10.3341 36.5377 10.3341 41.6201C10.3341 46.7026 11.0707 59.6525 11.0707 59.6525C11.0707 59.6525 15.0532 70.3992 15.2216 70.8211C15.3899 71.2429 13.1076 65.3152 11.8137 61.5142C10.5198 57.7132 12.4952 55.4197 13.9507 55.0429C15.4062 54.666 17.8167 54.6532 19.5614 57.8741C20.972 60.4782 25.8713 71.3731 27.6962 75.4508C28.1542 76.4742 28.3883 77.5796 28.3883 78.7008V87.5289" stroke="white" stroke-width="3" stroke-linecap="round"/>
<path d="M70.9911 87.5289V85.2906C70.9911 83.5013 71.5909 81.7636 72.6948 80.3553L79.597 71.5497C80.9768 69.7893 81.7266 67.6201 81.7266 65.3834C81.7266 58.9831 81.7266 45.5612 81.7266 41.6201C81.7266 36.0649 79.0974 35.5289 77.3105 35.5289C75.5236 35.5289 72.8925 36.5377 72.8925 41.6201C72.8925 46.7026 72.156 59.6525 72.156 59.6525C72.156 59.6525 68.1734 70.3992 68.0051 70.8211C67.8367 71.2429 70.1191 65.3152 71.413 61.5142C72.7068 57.7132 70.7314 55.4197 69.2759 55.0429C67.8204 54.666 65.41 54.6532 63.6652 57.8741C62.2546 60.4782 57.3553 71.3731 55.5304 75.4508C55.0724 76.4742 54.8383 77.5796 54.8383 78.7008V87.5289" stroke="white" stroke-width="3" stroke-linecap="round"/>
</svg>
