<svg width="26" height="31" viewBox="0 0 26 31" xmlns="http://www.w3.org/2000/svg">
    <g fill="#FFF" fill-rule="nonzero">
        <path d="M25.01.402H6.678c-.018 0-.036 0-.05.003a.528.528 0 0 0-.433.162L4.504 2.35l-.011.01L2.707 4.15l-1.8 1.795a.526.526 0 0 0-.155.372v23.471c0 .134.053.268.155.373.106.102.24.155.373.155h18.338c.14 0 .274-.056.373-.155l1.8-1.795 1.796-1.798 1.796-1.795a.53.53 0 0 0 .155-.373V.93a.526.526 0 0 0-.527-.528zM7.206 1.457h17.277v22.415H7.205V1.457zm-.31 23.471h16.84l-.74.74H6.156l.74-.74zM5.405 2.935l.743-.784v22.027l-.743.743V2.935zm-.307 23.788H21.94l-.743.742H4.356l.742-.742zM3.608 4.74l.74-.739v21.975l-.74.74V4.74zm-1.056 23.03-.743.743V6.536l.743-.743v21.979zm16.847 1.49H2.556l.74-.74h16.843l-.74.74z"/>
        <path d="M15.842 13.651a4.305 4.305 0 0 1-4.304-4.296 4.305 4.305 0 0 1 8.608 0 4.305 4.305 0 0 1-4.304 4.296zm0-7.538a3.25 3.25 0 0 0-3.25 3.242 3.25 3.25 0 0 0 6.499 0 3.25 3.25 0 0 0-3.25-3.242z"/>
        <path d="M15.307 10.856a.522.522 0 0 1-.37-.154l-.964-.973a.531.531 0 0 1 0-.747.52.52 0 0 1 .74 0l.594.6 1.56-1.573a.52.52 0 0 1 .74 0 .531.531 0 0 1 0 .746l-1.93 1.947a.521.521 0 0 1-.37.154zM20.86 17.584H10.72a.524.524 0 0 1-.53-.517c0-.286.237-.518.53-.518h10.14c.293 0 .53.232.53.518a.523.523 0 0 1-.53.517zM19.096 20.069h-6.612a.525.525 0 0 1-.531-.518c0-.286.238-.517.531-.517h6.612c.293 0 .531.231.531.517a.525.525 0 0 1-.531.518z"/>
    </g>
</svg>
