<?xml version="1.0" encoding="UTF-8"?>
<svg width="18px" height="18px" viewBox="0 0 18 18" version="1.1" xmlns="http://www.w3.org/2000/svg" xmlns:xlink="http://www.w3.org/1999/xlink">
    <title>79DC5507-B042-406F-ABD0-310AAB9EFBE0</title>
    <g id="Design-Kit" stroke="none" stroke-width="1" fill="none" fill-rule="evenodd">
        <g id="Iconography" transform="translate(-392.000000, -1006.000000)" fill="#168281" fill-rule="nonzero">
            <path d="M395.141776,1021.45822 C395.178516,1021.45822 395.215174,1021.45475 395.251336,1021.44826 L399.076932,1020.7381 C399.095548,1020.73174 399.113813,1020.72439 399.131652,1020.71608 C399.209309,1020.69353 399.281557,1020.6554 399.343991,1020.604 C399.360405,1020.59427 399.376306,1020.58369 399.391631,1020.57232 L408.009841,1011.95429 L409.824179,1010.13966 C409.93675,1010.02719 410,1009.87458 410,1009.71546 C410,1009.55633 409.93675,1009.40373 409.824179,1009.29126 L406.708743,1006.17582 C406.596273,1006.06325 406.443671,1006 406.284543,1006 C406.125416,1006 405.972813,1006.06325 405.860344,1006.17582 L404.046006,1007.98986 L395.427736,1016.60843 C395.414716,1016.62139 395.409736,1016.63843 395.398456,1016.65247 C395.345886,1016.71558 395.306931,1016.78887 395.284036,1016.86775 C395.275694,1016.88579 395.268304,1016.90425 395.261896,1016.92307 L394.551737,1020.74866 C394.519286,1020.92398 394.566446,1021.10465 394.680444,1021.24174 C394.794442,1021.37883 394.963481,1021.45822 395.141776,1021.45822 Z M396.233775,1018.26305 L397.736833,1019.7661 L395.891115,1020.10876 L396.233775,1018.26305 Z M406.284543,1007.44848 L408.551521,1009.71546 L407.585522,1010.68146 L406.452003,1009.54746 L405.318544,1008.41346 L406.284543,1007.44848 Z M404.470145,1009.26258 L405.603724,1010.39658 L406.737183,1011.53057 L398.967372,1019.29961 L396.700394,1017.03263 L404.470145,1009.26258 Z M409.999979,1023.4 C409.999979,1023.73137 409.73135,1024 409.39998,1024 L392.599999,1024 C392.268629,1024 392,1023.73137 392,1023.4 C392,1023.06863 392.268629,1022.8 392.599999,1022.8 L409.39998,1022.8 C409.73135,1022.8 409.999979,1023.06863 409.999979,1023.4 Z" id="Shape"></path>
        </g>
    </g>
</svg>