<svg width="29" height="28" viewBox="0 0 29 28" xmlns="http://www.w3.org/2000/svg">
    <path d="M22.764 0c1.446 0 2.683.513 3.71 1.54 1.027 1.027 1.54 2.264 1.54 3.71v17.5c0 1.446-.513 2.683-1.54 3.71-1.027 1.027-2.264 1.54-3.71 1.54h-3.427V17.154h3.628l.546-4.23h-4.174v-2.697c0-.681.143-1.191.428-1.532.286-.34.842-.51 1.668-.51l2.224-.018V4.393c-.765-.11-1.847-.164-3.244-.164-1.653 0-2.975.486-3.965 1.458-.99.973-1.486 2.346-1.486 4.12v3.117h-3.646v4.23h3.646V28H5.264c-1.446 0-2.683-.513-3.71-1.54-1.026-1.027-1.54-2.264-1.54-3.71V5.25c0-1.446.514-2.683 1.54-3.71C2.581.513 3.818 0 5.264 0h17.5z" fill="#FFF" fill-rule="nonzero"/>
</svg>
