<svg width="24" height="20" viewBox="0 0 24 20" xmlns="http://www.w3.org/2000/svg">
    <g fill="none" fill-rule="evenodd">
        <path d="M0 .5h24v19H0z"/>
        <path d="M23.775 17.979 1.35.63a.604.604 0 0 0-.843.093l-.375.463a.59.59 0 0 0 .093.835L22.65 19.37a.604.604 0 0 0 .843-.093l.375-.463a.59.59 0 0 0-.093-.835zM11.13 5.935l5.054 3.911C16.101 7.622 14.268 5.844 12 5.844c-.293 0-.584.031-.87.091zm1.74 8.13-5.054-3.91C7.9 12.377 9.732 14.155 12 14.155c.293 0 .584-.031.87-.091zM12 4.656c3.7 0 7.09 2.041 8.922 5.344a10.602 10.602 0 0 1-1.65 2.234l1.415 1.095a12.384 12.384 0 0 0 1.984-2.788 1.19 1.19 0 0 0 0-1.083C20.636 5.532 16.61 2.875 12 2.875c-1.376 0-2.689.26-3.924.698l1.74 1.347A9.94 9.94 0 0 1 12 4.656zm0 10.688c-3.7 0-7.09-2.041-8.922-5.344A10.6 10.6 0 0 1 4.73 7.766L3.315 6.672A12.38 12.38 0 0 0 1.33 9.459a1.19 1.19 0 0 0 0 1.083c2.034 3.926 6.06 6.583 10.669 6.583 1.376 0 2.689-.262 3.924-.698l-1.74-1.346a9.96 9.96 0 0 1-2.184.263z" fill="#115E67" fill-rule="nonzero"/>
    </g>
</svg>
