<svg width="85" height="69" viewBox="0 0 85 69" xmlns="http://www.w3.org/2000/svg">
    <g fill="none" fill-rule="evenodd">
        <path d="M0 27.302v1.784a1 1 0 0 0 1.566.824l36.73-25.202a1 1 0 0 1 1.132 0l36.73 25.202a1 1 0 0 0 1.566-.824v-1.784a1 1 0 0 0-.433-.823L39.43.39a1 1 0 0 0-1.134 0L.433 26.479a1 1 0 0 0-.433.823z" fill="#FFF"/>
        <path d="m39.415 9.457 28.624 18.597a1 1 0 0 1 .455.839V67.09a1 1 0 0 1-1 1H46.671a1 1 0 0 1-1-1v-16.45a1 1 0 0 0-1-1H34.036a1 1 0 0 0-1 1v16.45a1 1 0 0 1-1 1H11.078a1 1 0 0 1-1-1V28.884a1 1 0 0 1 .444-.831L38.314 9.464a1 1 0 0 1 1.1-.007zm0 3.499a1 1 0 0 0-1.1.008L13.522 29.553a1 1 0 0 0-.444.83v33.708a1 1 0 0 0 1 1h14.958a1 1 0 0 0 1-1v-15.95a1 1 0 0 1 1-1h16.633a1 1 0 0 1 1 1V64.07a1 1 0 0 0 1 1h14.825a1 1 0 0 0 1-1V30.394a1 1 0 0 0-.456-.84z" fill="#FFF"/>
        <path d="M55.902 40.452c5.077-5.077 13.308-5.077 18.385 0 4.596 4.596 5.031 11.776 1.306 16.862l8.593 8.594a1 1 0 0 1 0 1.414l-1.414 1.414a1 1 0 0 1-1.414 0l-8.593-8.593c-5.086 3.725-12.267 3.29-16.863-1.306-5.077-5.077-5.077-13.308 0-18.385z" fill="#FFF"/>
        <circle fill="#009E8C" transform="rotate(-45 65.094 49.645)" cx="65.094" cy="49.645" r="10"/>
        <path d="M59.292 49.57a5.6 5.6 0 0 1 1.631-3.971l.111-.111-.909-.919-.111.112c-2.68 2.7-2.68 7.077 0 9.777l.11.111.91-.918-.11-.11a5.6 5.6 0 0 1-1.632-3.972z" stroke="#FFF" fill="#FFF" fill-rule="nonzero"/>
        <path d="M47.52 25.57a1 1 0 0 1 1 1v12a1 1 0 0 1-1 1h-16.5a1 1 0 0 1-1-1v-12a1 1 0 0 1 1-1h16.5zm-10.5 8h-3.5a1 1 0 0 0-1 1v2a1 1 0 0 0 1 1h3.5a1 1 0 0 0 1-1v-2a1 1 0 0 0-1-1zm7.5 0h-3.5a1 1 0 0 0-1 1v2a1 1 0 0 0 1 1h3.5a1 1 0 0 0 1-1v-2a1 1 0 0 0-1-1zm-7.5-6h-3.5a1 1 0 0 0-1 1v2a1 1 0 0 0 1 1h3.5a1 1 0 0 0 1-1v-2a1 1 0 0 0-1-1zm7.5 0h-3.5a1 1 0 0 0-1 1v2a1 1 0 0 0 1 1h3.5a1 1 0 0 0 1-1v-2a1 1 0 0 0-1-1z" fill="#FFF"/>
    </g>
</svg>
