<svg width="28" height="28" viewBox="0 0 28 28" xmlns="http://www.w3.org/2000/svg">
    <g fill="none" fill-rule="evenodd">
        <path d="M0 0h28v28H0z"/>
        <path d="M20.885 14.155c-.01-1.886.829-3.306 2.525-4.354-.948-1.382-2.384-2.142-4.276-2.289-1.79-.144-3.75 1.062-4.468 1.062-.759 0-2.493-1.012-3.857-1.012C7.993 7.606 5 9.845 5 14.4c0 1.346.242 2.736.726 4.168.647 1.886 2.979 6.505 5.412 6.43 1.272-.03 2.171-.918 3.827-.918 1.606 0 2.438.918 3.857.918 2.454-.036 4.564-4.235 5.178-6.126-3.292-1.578-3.115-4.622-3.115-4.718zm-2.857-8.431C19.406 4.059 19.281 2.544 19.24 2c-1.217.072-2.625.843-3.427 1.791-.884 1.018-1.403 2.275-1.291 3.693 1.315.103 2.517-.586 3.506-1.76z" fill="#FFF" fill-rule="nonzero"/>
    </g>
</svg>
