<svg width="108" height="67" viewBox="0 0 108 67" xmlns="http://www.w3.org/2000/svg">
    <g fill="none" fill-rule="evenodd">
        <path d="m105.374 17.711 1.415 1.415a2 2 0 0 1 0 2.828L86.366 42.376a.5.5 0 0 1-.196.121l-5.309 1.763a.5.5 0 0 1-.632-.633l1.773-5.298a.5.5 0 0 1 .121-.195l20.423-20.423a2 2 0 0 1 2.828 0z" fill="#FFF"/>
        <path stroke="#F76157" stroke-width="3" stroke-linecap="square" d="m101.132 21.247 2.121 2.121"/>
        <circle fill="#FFF" cx="8.5" cy="7.5" r="1.5"/>
        <circle fill="#FFF" cx="14.5" cy="7.5" r="1.5"/>
        <circle fill="#FFF" cx="20.5" cy="7.5" r="1.5"/>
        <path d="M93 0a3 3 0 0 1 3 3v61a3 3 0 0 1-3 3H3a3 3 0 0 1-3-3V3a3 3 0 0 1 3-3h90zm-4 3.5H7a3 3 0 0 0-3 3v54a3 3 0 0 0 3 3h82a3 3 0 0 0 3-3v-54a3 3 0 0 0-3-3z" fill="#FFF"/>
        <path d="M17.959 22.204c.268.049.32.098.46.224l2.657 2.553 4.43-5.673s.503-.452.987-.26c.433.172.647.732.407 1.138-.024.038-.031.047-.058.084l-5.008 6.413a.703.703 0 0 1-.224.198.88.88 0 0 1-.957-.047c-.036-.028-.043-.036-.077-.065l-3.338-3.207a.682.682 0 0 1-.195-.295c-.18-.481.229-1.09.812-1.073.035 0 .069.005.104.01zM17.959 37.204c.268.049.32.098.46.224l2.657 2.553 4.43-5.673s.503-.452.987-.26c.433.172.647.732.407 1.138-.024.038-.031.047-.058.084l-5.008 6.413a.703.703 0 0 1-.224.198.88.88 0 0 1-.957-.047c-.036-.028-.043-.036-.077-.065l-3.338-3.207a.682.682 0 0 1-.195-.295c-.18-.481.229-1.09.812-1.073.035 0 .069.005.104.01zM17.959 53.204c.268.049.32.098.46.224l2.657 2.553 4.43-5.673s.503-.452.987-.26c.433.172.647.732.407 1.138-.024.038-.031.047-.058.084l-5.008 6.413a.703.703 0 0 1-.224.198.88.88 0 0 1-.957-.047c-.036-.028-.043-.036-.077-.065l-3.338-3.207a.682.682 0 0 1-.195-.295c-.18-.481.229-1.09.812-1.073.035 0 .069.005.104.01z" fill="#FFF"/>
        <path stroke="#FFF" stroke-width="2.5" stroke-linecap="round" d="M35.5 23.5h35M35.5 38.5h35M35.5 54.5h35"/>
        <path fill="#FFF" d="M4 11h88v3H4z"/>
    </g>
</svg>
