<svg width="27" height="27" viewBox="0 0 27 27" xmlns="http://www.w3.org/2000/svg">
    <g fill="none" fill-rule="evenodd">
        <circle fill="#FFF" cx="13.5" cy="13.5" r="13.5"/>
        <path d="M3 3h21v21H3z"/>
        <path d="M22.08 11.786h-.705v-.036H13.5v3.5h4.945A5.248 5.248 0 0 1 8.25 13.5c0-2.9 2.35-5.25 5.25-5.25 1.338 0 2.556.505 3.483 1.33l2.475-2.475A8.71 8.71 0 0 0 13.5 4.75a8.75 8.75 0 1 0 8.58 7.036z" fill="#FFC107" fill-rule="nonzero"/>
        <path d="m5.759 9.427 2.875 2.109A5.248 5.248 0 0 1 13.5 8.25c1.338 0 2.556.505 3.483 1.33l2.475-2.475A8.71 8.71 0 0 0 13.5 4.75a8.745 8.745 0 0 0-7.741 4.677z" fill="#FF3D00" fill-rule="nonzero"/>
        <path d="M13.5 22.25c2.26 0 4.314-.865 5.866-2.271l-2.708-2.292A5.21 5.21 0 0 1 13.5 18.75a5.248 5.248 0 0 1-4.936-3.476L5.71 17.472a8.743 8.743 0 0 0 7.79 4.778z" fill="#4CAF50" fill-rule="nonzero"/>
        <path d="M22.08 11.786h-.705v-.036H13.5v3.5h4.945a5.268 5.268 0 0 1-1.788 2.437h.001l2.708 2.291c-.191.174 2.884-2.103 2.884-6.478 0-.587-.06-1.16-.17-1.714z" fill="#1976D2" fill-rule="nonzero"/>
    </g>
</svg>
