<svg width="84" height="90" viewBox="0 0 84 90" xmlns="http://www.w3.org/2000/svg">
    <g fill="none" fill-rule="evenodd">
        <g fill="#FFF">
            <path d="M14.502 19.542v1.214a.925.925 0 0 0 1.444.766L41.907 3.946a1 1 0 0 1 1.121 0L68.99 21.522a.925.925 0 0 0 1.444-.766v-1.214a1 1 0 0 0-.438-.827L43.03.382a1 1 0 0 0-1.125 0L14.94 18.715a1 1 0 0 0-.438.827z"/>
            <path d="m43.369 7.125 20.297 13.058a1 1 0 0 1 .459.841v26.748a1 1 0 0 1-1 1h-14.41a1 1 0 0 1-1-1V36.637a1 1 0 0 0-1-1h-7.084a1 1 0 0 0-1 1v11.135a1 1 0 0 1-1 1H23.125a1 1 0 0 1-1-1V21.016a1 1 0 0 1 .448-.834l19.703-13.05a1 1 0 0 1 1.093-.007zm-.011 3.486a1 1 0 0 0-1.076.009L25.58 21.465a1 1 0 0 0-.455.839v22.468a1 1 0 0 0 1 1h8.293a1 1 0 0 0 1-1V33.778a1 1 0 0 1 1-1h13.51a1 1 0 0 1 1 1v11.978a1 1 0 0 0 1 1h8.197a1 1 0 0 0 1-1V22.314a1 1 0 0 0-.469-.847z"/>
        </g>
        <path d="M12.736 87.529V85.29a8 8 0 0 0-1.704-4.936L4.13 71.55A10 10 0 0 1 2 65.38V41.62c0-5.555 2.63-6.091 4.416-6.091 1.787 0 4.418 1.009 4.418 6.091 0 3.388.246 9.4.737 18.032 2.655 7.165 4.038 10.888 4.15 11.17.169.421-2.113-5.507-3.407-9.308-1.294-3.8.681-6.094 2.137-6.471 1.455-.377 3.866-.39 5.61 2.831 1.105 2.04 3.816 7.896 8.133 17.568a8 8 0 0 1 .694 3.26v8.827h0M71.491 87.529V85.29a8 8 0 0 1 1.704-4.936l6.902-8.805a10 10 0 0 0 2.13-6.17V41.62c0-5.555-2.63-6.091-4.416-6.091-1.787 0-4.418 1.009-4.418 6.091 0 3.388-.246 9.4-.737 18.032-2.655 7.165-4.039 10.888-4.15 11.17-.17.421 2.113-5.507 3.407-9.308 1.294-3.8-.682-6.094-2.137-6.471-1.456-.377-3.866-.39-5.61 2.831-1.106 2.04-3.817 7.896-8.133 17.568a8 8 0 0 0-.695 3.26v8.827h0" stroke="#FFF" stroke-width="3" stroke-linecap="round"/>
    </g>
</svg>
