<svg width="30" height="30" viewBox="0 0 30 30" xmlns="http://www.w3.org/2000/svg">
    <g fill="none" fill-rule="evenodd">
        <circle fill="#FFF" cx="15" cy="15" r="15"/>
        <path d="M10.15 14.005c.323.06.384.123.552.28l3.19 3.191 5.316-7.092s.603-.565 1.184-.325c.52.216.776.916.487 1.423-.028.048-.037.06-.069.105l-6.009 8.017a.855.855 0 0 1-.269.247 1.022 1.022 0 0 1-1.148-.059c-.043-.034-.052-.044-.092-.081l-4.007-4.009a.857.857 0 0 1-.233-.369c-.217-.6.274-1.362.973-1.34.043 0 .084.006.126.012z" fill="#3A383C"/>
    </g>
</svg>
