<svg width="28" height="28" viewBox="0 0 28 28" xmlns="http://www.w3.org/2000/svg">
    <g transform="translate(.93 .099)" fill="#FFF" fill-rule="nonzero">
        <circle cx="13.5" cy="13.5" r="5.674"/>
        <path d="M7.967 7.902a7.832 7.832 0 0 1 5.568-2.315c2.104 0 4.081.832 5.569 2.32a7.758 7.758 0 0 1 1.985 3.343H27V3.305C27 1.44 25.56 0 23.695 0H3.445C1.581 0 0 1.44 0 3.305v7.945h5.982a7.773 7.773 0 0 1 1.985-3.348zM24.75 5.85a.9.9 0 0 1-.9.9h-2.7a.9.9 0 0 1-.9-.9v-2.7a.9.9 0 0 1 .9-.9h2.7a.9.9 0 0 1 .9.9v2.7zm-5.646 13.19a7.815 7.815 0 0 1-5.569 2.297 7.81 7.81 0 0 1-5.568-2.293A7.898 7.898 0 0 1 5.66 13.5H0v10.055C0 25.419 1.581 27 3.445 27h20.25C25.56 27 27 25.419 27 23.555V13.5h-5.59a7.887 7.887 0 0 1-2.306 5.54z"/>
    </g>
</svg>
