<svg width="96" height="76" viewBox="0 0 96 76" fill="none" xmlns="http://www.w3.org/2000/svg">
<path fill-rule="evenodd" clip-rule="evenodd" d="M0.932622 26.4786C0.66176 26.6652 0.5 26.9731 0.5 27.3021V29.0857C0.5 29.8904 1.4022 30.3655 2.06577 29.9102L38.7963 4.70759C39.1372 4.47368 39.5869 4.47368 39.9278 4.70759L76.6583 29.9102C77.3219 30.3655 78.2241 29.8904 78.2241 29.0857V27.3021C78.2241 26.9731 78.0623 26.6652 77.7915 26.4786L39.9294 0.390934C39.5878 0.155544 39.1363 0.155544 38.7947 0.390934L0.932622 26.4786Z" fill="white"/>
<path fill-rule="evenodd" clip-rule="evenodd" d="M11.5783 68.0913C11.026 68.0913 10.5783 67.6436 10.5783 67.0913V28.884C10.5783 28.5502 10.7449 28.2384 11.0223 28.0528L38.8141 9.46406C39.1465 9.24171 39.5795 9.23882 39.9149 9.45672L68.5388 28.0541C68.8227 28.2385 68.994 28.5541 68.994 28.8926V67.0913C68.994 67.6436 68.5462 68.0913 67.994 68.0913H47.1715C46.6192 68.0913 46.1715 67.6436 46.1715 67.0913V50.6415C46.1715 50.0892 45.7238 49.6415 45.1715 49.6415H34.5358C33.9835 49.6415 33.5358 50.0892 33.5358 50.6415V67.0913C33.5358 67.6436 33.0881 68.0913 32.5358 68.0913H11.5783ZM14.5783 65.0913C14.026 65.0913 13.5783 64.6436 13.5783 64.0913V30.3839C13.5783 30.0502 13.7448 29.7384 14.0222 29.5528L38.8148 12.9637C39.1469 12.7415 39.5793 12.7383 39.9146 12.9555L65.5377 29.5542C65.8222 29.7385 65.994 30.0545 65.994 30.3935V64.0692C65.994 64.6215 65.5462 65.0692 64.994 65.0692H50.1693C49.617 65.0692 49.1693 64.6215 49.1693 64.0692V48.1415C49.1693 47.5892 48.7216 47.1415 48.1693 47.1415H31.5358C30.9835 47.1415 30.5358 47.5892 30.5358 48.1415V64.0913C30.5358 64.6436 30.0881 65.0913 29.5358 65.0913H14.5783Z" fill="white"/>
<path fill-rule="evenodd" clip-rule="evenodd" d="M76.0929 57.3146C79.8181 52.229 79.3827 45.0481 74.7868 40.4522C69.71 35.3754 61.4789 35.3754 56.402 40.4522C51.3252 45.529 51.3252 53.7601 56.402 58.8369C60.9979 63.4328 68.1788 63.8682 73.2645 60.143L81.8641 68.7427C82.2512 69.1298 82.8788 69.1298 83.2659 68.7427L84.6925 67.316C85.0796 66.9289 85.0796 66.3013 84.6925 65.9143L76.0929 57.3146Z" fill="white"/>
<circle cx="65.5944" cy="49.6446" r="10" transform="rotate(-45 65.5944 49.6446)" fill="#279989"/>
<path d="M59.7919 49.5692C59.7876 48.0793 60.3751 46.6495 61.4235 45.5986L61.5342 45.4877L60.6251 44.5692L60.5137 44.6808C57.834 47.3809 57.834 51.7582 60.5137 54.4583L60.6244 54.5692L61.5336 53.6507L61.4235 53.5404C60.375 52.4893 59.7875 51.0593 59.7919 49.5692V49.5692Z" fill="white" stroke="white"/>
<path fill-rule="evenodd" clip-rule="evenodd" d="M31.519 25.5692C30.9668 25.5692 30.519 26.0169 30.519 26.5692V38.5692C30.519 39.1215 30.9668 39.5692 31.519 39.5692H48.019C48.5713 39.5692 49.019 39.1215 49.019 38.5692V26.5692C49.019 26.0169 48.5713 25.5692 48.019 25.5692H31.519ZM33.019 28.5692C33.019 28.0169 33.4668 27.5692 34.019 27.5692H37.519C38.0713 27.5692 38.519 28.0169 38.519 28.5692V30.5692C38.519 31.1215 38.0713 31.5692 37.519 31.5692H34.019C33.4668 31.5692 33.019 31.1215 33.019 30.5692V28.5692ZM33.019 34.5692C33.019 34.0169 33.4668 33.5692 34.019 33.5692H37.519C38.0713 33.5692 38.519 34.0169 38.519 34.5692V36.5692C38.519 37.1215 38.0713 37.5692 37.519 37.5692H34.019C33.4668 37.5692 33.019 37.1215 33.019 36.5692V34.5692ZM41.519 27.5692C40.9668 27.5692 40.519 28.0169 40.519 28.5692V30.5692C40.519 31.1215 40.9668 31.5692 41.519 31.5692H45.019C45.5713 31.5692 46.019 31.1215 46.019 30.5692V28.5692C46.019 28.0169 45.5713 27.5692 45.019 27.5692H41.519ZM40.519 34.5692C40.519 34.0169 40.9668 33.5692 41.519 33.5692H45.019C45.5713 33.5692 46.019 34.0169 46.019 34.5692V36.5692C46.019 37.1215 45.5713 37.5692 45.019 37.5692H41.519C40.9668 37.5692 40.519 37.1215 40.519 36.5692V34.5692Z" fill="white"/>
</svg>
