<svg width="23" height="25" viewBox="0 0 23 25" xmlns="http://www.w3.org/2000/svg">
    <g fill="#FFF" fill-rule="nonzero">
        <path d="M3.687 20h15.626c1.492-.001 2.836-.88 3.406-2.228a3.55 3.55 0 0 0-.798-3.93l-2.326-2.275v-3.65C19.595 3.544 15.97 0 11.5 0 7.03 0 3.405 3.544 3.405 7.917v3.65L1.08 13.842a3.55 3.55 0 0 0-.798 3.93C.85 19.12 2.195 20 3.687 20zm-.801-4.392L5.962 12.6V7.917c0-2.992 2.48-5.417 5.538-5.417 3.059 0 5.538 2.425 5.538 5.417V12.6l3.076 3.008c.324.317.421.794.246 1.208a1.134 1.134 0 0 1-1.047.684H3.687c-.459 0-.871-.27-1.047-.684a1.09 1.09 0 0 1 .246-1.208zM8.092 22.5h6.817V25H8.092z"/>
    </g>
</svg>
