<svg width="23" height="23" viewBox="0 0 23 23" xmlns="http://www.w3.org/2000/svg">
    <path d="M16.68 22c-.386-.064-.774-.115-1.157-.196a15.088 15.088 0 0 1-4.062-1.655 21.687 21.687 0 0 1-5.348-4.168c-1.889-2.041-3.46-4.29-4.45-6.906A8.949 8.949 0 0 1 1.01 6.12a3.546 3.546 0 0 1 .98-2.72c.59-.601 1.162-1.226 1.798-1.775.982-.84 2.052-.84 3 .04a59.252 59.252 0 0 1 2.903 2.918c.709.76.709 1.936 0 2.697-.496.56-1.045 1.07-1.568 1.605-.048.044-.099.084-.186.162a15.235 15.235 0 0 0 6.021 5.974l1.25-1.258c.307-.36.692-.648 1.126-.84a1.896 1.896 0 0 1 2.057.364 81.657 81.657 0 0 1 3.069 3.064c.7.746.722 1.896.053 2.67-.63.738-1.328 1.439-2.035 2.116a3.143 3.143 0 0 1-1.824.81 1.387 1.387 0 0 0-.144.042l-.83.011zm.313-1.263a2.419 2.419 0 0 0 1.871-.734c.473-.493.957-.974 1.436-1.462.062-.062.12-.127.174-.196a.856.856 0 0 0-.025-1.232c-.385-.415-.794-.807-1.193-1.207-.521-.518-1.036-1.04-1.563-1.549a.846.846 0 0 0-1.23-.034c-.078.065-.149.138-.222.21-.501.496-.997.998-1.5 1.488a.958.958 0 0 1-1.197.198c-.306-.154-.61-.308-.906-.481a15.587 15.587 0 0 1-3.496-2.902 12.539 12.539 0 0 1-2.314-3.27c-.298-.656-.234-.975.282-1.474.515-.499 1.066-1.028 1.576-1.566a.8.8 0 0 0 .02-1.173 4.522 4.522 0 0 0-.192-.207l-2.471-2.47c-.53-.519-1-.524-1.529 0-.529.523-1.027.985-1.508 1.51a2.8 2.8 0 0 0-.563.84 3.55 3.55 0 0 0-.026 2.058 12.425 12.425 0 0 0 1.098 3.01 20.56 20.56 0 0 0 3.198 4.624 20.17 20.17 0 0 0 8.073 5.546 7.387 7.387 0 0 0 2.207.462v.01z" fill="#FFF" fill-rule="nonzero" stroke="#FFF"/>
</svg>
