<svg width="32" height="32" viewBox="0 0 32 32" xmlns="http://www.w3.org/2000/svg">
    <path d="M16.004 0C7.166 0 0 7.163 0 15.996c0 6.549 3.944 12.176 9.58 14.654-.042-1.114-.006-2.456.28-3.67l2.057-8.72s-.514-1.021-.514-2.528c0-2.37 1.371-4.142 3.086-4.142 1.457 0 2.158 1.093 2.158 2.4 0 1.464-.936 3.649-1.415 5.677-.4 1.7.85 3.078 2.53 3.078 3.028 0 5.072-3.892 5.072-8.505 0-3.507-2.365-6.128-6.659-6.128-4.851 0-7.88 3.621-7.88 7.663 0 1.393.414 2.378 1.057 3.135.293.35.336.493.229.893-.079.293-.25 1-.329 1.285-.107.407-.436.55-.8.4-2.236-.914-3.28-3.356-3.28-6.113 0-4.542 3.837-9.99 11.439-9.99 6.108 0 10.13 4.42 10.13 9.162 0 6.277-3.493 10.962-8.637 10.962-1.729 0-3.35-.936-3.908-1.993 0 0-.929 3.685-1.129 4.4-.336 1.235-1 2.463-1.607 3.427a16.09 16.09 0 0 0 4.536.657C24.834 32 32 24.837 32 16.004 32.007 7.163 24.841 0 16.004 0z" fill="#FFF" fill-rule="nonzero"/>
</svg>
