<svg width="128" height="34" viewBox="0 0 128 34" xmlns="http://www.w3.org/2000/svg" xmlns:xlink="http://www.w3.org/1999/xlink">
    <defs>
        <path id="obx8sad3fa" d="M0 0h128v34H0z"/>
    </defs>
    <g fill="none" fill-rule="evenodd">
        <mask id="3aa9h2716b" fill="#fff">
            <use xlink:href="#obx8sad3fa"/>
        </mask>
        <use xlink:href="#obx8sad3fa"/>
        <g mask="url(#3aa9h2716b)" fill="#FFF" fill-rule="nonzero">
            <path d="M68.078 30.488h1.944a1.196 1.196 0 0 0 1.063-1.323 1.254 1.254 0 0 0-1.15-1.311H68.05l.028 2.634zm-1.115 3.452v-7.093h3.07a2.3 2.3 0 0 1 2.185 2.3 2.14 2.14 0 0 1-1.38 2.078l1.673 2.68h-1.26l-1.546-2.456h-1.627v2.456l-1.115.035zM77.202 30.908a1.581 1.581 0 0 0-1.581-1.49c-.834 0-1.521.656-1.558 1.49h3.139zm-4.271.409a2.63 2.63 0 0 1 2.702-2.698 2.586 2.586 0 0 1 2.65 2.646v.397H74.12c.03.847.721 1.521 1.569 1.53a1.466 1.466 0 0 0 1.345-.794l.937.27a2.512 2.512 0 0 1-2.334 1.33 2.62 2.62 0 0 1-2.69-2.681M79.128 33.272l.454-.736c.547.415 1.21.648 1.897.667.656 0 1.075-.258 1.075-.724 0-.466-.42-.576-1.35-.806-1.306-.328-1.817-.575-1.817-1.398 0-1.052.89-1.656 2.035-1.656.731-.001 1.444.23 2.035.661l-.472.668a2.603 2.603 0 0 0-1.586-.576c-.575 0-.99.219-.99.725s.294.535 1.15.748c1.432.334 2.059.644 2.059 1.524 0 .984-.828 1.611-2.11 1.611a4.137 4.137 0 0 1-2.369-.725M84.917 28.705h1.092V33.9h-1.092zM84.917 26.651h1.092v1.202h-1.092zM91.534 32.03v-1.358a1.725 1.725 0 0 0-1.495-1.15 1.766 1.766 0 0 0 .075 3.515A1.564 1.564 0 0 0 91.534 32m-4.15-.696c0-1.478.97-2.686 2.333-2.686a2.11 2.11 0 0 1 1.823 1.07V26.65h1.092v5.954c0 .253.092.351.316.363v.931a2.873 2.873 0 0 1-.534.046.673.673 0 0 1-.696-.575v-.425a2.173 2.173 0 0 1-1.857 1.04 2.54 2.54 0 0 1-2.478-2.68M98.387 30.908a1.581 1.581 0 0 0-1.581-1.49c-.834 0-1.521.656-1.558 1.49h3.139zm-4.272.409a2.63 2.63 0 0 1 2.702-2.698 2.586 2.586 0 0 1 2.65 2.646c.004.125 0 .25-.011.374h-4.162a1.593 1.593 0 0 0 1.57 1.53c.568.02 1.098-.289 1.362-.794l.931.27a2.512 2.512 0 0 1-2.334 1.33 2.62 2.62 0 0 1-2.69-2.681M105.406 33.9h-1.092v-2.911c0-.972-.328-1.398-.926-1.398a1.77 1.77 0 0 0-1.558 1.22v3.088h-1.092v-5.177h1.018v1.041a2.403 2.403 0 0 1 2.115-1.15c1.248 0 1.558.972 1.558 2.111l-.023 3.175zM109.925 33.63a3.373 3.373 0 0 1-1.374.35 1.15 1.15 0 0 1-1.248-1.19v-3.24h-.695v-.845h.695v-1.726h1.092v1.726h1.15v.846h-1.15v2.876a.495.495 0 0 0 .547.523c.26-.012.513-.083.741-.207l.242.886zM111.023 33.9h1.08v-5.178h-1.092l.012 5.177zm0-6.046h1.08V26.65h-1.092l.012 1.203zM116.795 32.645a.575.575 0 0 0 .207-.373v-.685a3.562 3.562 0 0 0-1.202-.23c-.776 0-1.328.38-1.328.92a.95.95 0 0 0 1.018.915c.499.013.977-.198 1.305-.575m-3.358-.276c0-.973.903-1.64 2.196-1.64.467-.002.93.08 1.369.242v-.357a1.15 1.15 0 0 0-1.27-1.225c-.596.02-1.171.221-1.65.575l-.34-.696a3.66 3.66 0 0 1 2.087-.673c1.42 0 2.265.765 2.265 2.111v1.875c0 .253.08.351.305.363v.932a2.873 2.873 0 0 1-.547.092.655.655 0 0 1-.684-.576l-.028-.327c-.47.602-1.192.95-1.955.943a1.66 1.66 0 0 1-1.76-1.628M119.531 26.651h1.092v5.718a.575.575 0 0 0 .575.616c.185-.008.366-.051.535-.127l.16.88c-.365.149-.754.23-1.149.242a1.098 1.098 0 0 1-1.213-1.19V26.65zM24.513 8.514V5.062h-6.03v.506C17.523 2.02 14.223 0 9.526 0H0v22.24h6.163V15.91h3.035c4.663 0 8.256-1.961 9.273-5.723v12.08h6.042V16.9c0-3.975 1.782-5.753 4.927-5.753h.506V4.821c-2.874-.127-4.444 1.397-5.433 3.75m-11.906-.35c0 1.725-1.333 2.876-3.524 2.876h-2.92v-5.92h2.874c2.225 0 3.559 1.018 3.559 2.923l.011.12zM59.789 12.736v-.08a3.291 3.291 0 0 0-3.49-3.302 3.327 3.327 0 0 0-3.53 3.336v.063c0 1.904 1.466 3.302 3.53 3.302a3.31 3.31 0 0 0 3.49-3.336M47.342 25.374l1.938-4.026a11.837 11.837 0 0 0 6.007 1.662c3.018 0 4.507-1.496 4.507-4.228v-.644a6.644 6.644 0 0 1-5.3 2.571c-4.226 0-7.623-3.049-7.623-7.973v-.08c0-4.953 3.45-8.002 7.433-8.002a6.897 6.897 0 0 1 5.398 2.41V5.051h6.03v13.058c0 3.14-.695 5.332-2.218 6.857-1.524 1.524-3.973 2.416-7.56 2.416a18.387 18.387 0 0 1-8.623-1.967M95.075 14.07c0-5.05-2.73-9.399-8.67-9.399a8.399 8.399 0 0 0-7.875 5.108V4.763c-2.874-.126-4.444 1.398-5.427 3.75v-3.45h-6.036v17.176h6.036v-5.338c0-3.975 1.776-5.753 4.921-5.753h.04a9.94 9.94 0 0 0-.327 2.543v.063c0 5.333 3.811 8.922 9.198 8.922a8.995 8.995 0 0 0 7.473-3.491l-3.334-2.767c-1.236 1.208-2.38 1.725-3.811 1.725a3.542 3.542 0 0 1-3.714-2.824h11.498v-1.243m-11.625-1.84c.322-1.876 1.397-3.113 2.99-3.113 1.592 0 2.76 1.208 2.983 3.113h-5.973z"/>
            <path d="M116.553 11.338c-1.81-.535-2.794-.857-2.794-1.524v-.035c0-.477.477-.822 1.397-.822 1.794.128 3.534.672 5.082 1.587l2.064-3.814a13.417 13.417 0 0 0-7.083-2.001c-3.966 0-6.898 2.036-6.898 5.689v.063c0 3.452 2.696 4.602 6.094 5.494 1.81.506 2.765.794 2.765 1.46v.064c0 .604-.477.92-1.524.92-1.684 0-4.18-.891-6.11-2.088-.265-2.95-2.846-4.06-6.066-4.964-1.81-.535-2.794-.857-2.794-1.524v-.064c0-.477.477-.822 1.397-.822a6.32 6.32 0 0 1 3.875.983l2.064-3.814c-3.369-1.397-3.95-1.34-5.876-1.397-3.966-.115-6.898 2.036-6.898 5.689v.063c0 3.452 2.702 4.602 6.1 5.494 1.81.506 2.759.794 2.759 1.46v.064c0 .604-.477.92-1.524.92a11.165 11.165 0 0 1-5.904-1.967l-2.26 3.653a13.883 13.883 0 0 0 8.136 2.543c2.477 0 4.478-.69 5.697-2.037a13.992 13.992 0 0 0 7.364 2.037c4.191 0 7.02-1.974 7.02-5.753v-.063c0-3.337-2.702-4.51-6.1-5.465M38.236 3.676a9.88 9.88 0 0 0-4.795 18.517v-7.196H31.2l7.037-8.25 7.037 8.25H43.03v7.196a9.88 9.88 0 0 0-4.795-18.517M127.27 5.626a2.373 2.373 0 0 1-4.025-1.726 2.261 2.261 0 0 1 .741-1.726 2.333 2.333 0 0 1 1.639-.65 2.299 2.299 0 0 1 1.679.702c.452.44.704 1.048.695 1.68a2.302 2.302 0 0 1-.713 1.726m-3.064-3.09a1.933 1.933 0 0 0-.575 1.381c-.01.528.198 1.036.575 1.404a1.89 1.89 0 0 0 1.391.575c.52.009 1.02-.2 1.38-.575.376-.37.584-.877.575-1.404a1.916 1.916 0 0 0-.575-1.38 1.856 1.856 0 0 0-1.385-.576 1.874 1.874 0 0 0-1.403.576m.356 2.703v-2.64h1.282c.18.005.357.05.518.132a.667.667 0 0 1 .35.633.575.575 0 0 1-.183.477.862.862 0 0 1-.46.179.84.84 0 0 1 .373.155c.163.145.25.357.236.575v.236a.38.38 0 0 0 0 .08.351.351 0 0 0 0 .075v.075h-.655a2.015 2.015 0 0 1-.046-.362 1.33 1.33 0 0 0-.04-.322.328.328 0 0 0-.196-.196.73.73 0 0 0-.236-.04h-.299v.938l-.644.005zm1.26-2.117a1.184 1.184 0 0 0-.397-.057h-.173v.76h.27a.66.66 0 0 0 .38-.093.38.38 0 0 0 .132-.316.3.3 0 0 0-.213-.3"/>
        </g>
    </g>
</svg>
