<svg width="21" height="21" viewBox="0 0 21 21" xmlns="http://www.w3.org/2000/svg">
    <g transform="translate(1 1)" stroke="#FFF" stroke-width="1.5" fill="none" fill-rule="evenodd">
        <path d="m5.742 2.667 1.387-.592L8.16.254A.5.5 0 0 1 8.593 0h1.404a.5.5 0 0 1 .434.253l1.037 1.822 1.396.592 2.022-.55a.5.5 0 0 1 .487.13l1.02 1.028a.5.5 0 0 1 .126.486l-.551 1.99.568 1.386 1.817 1.08a.5.5 0 0 1 .244.43v1.43a.5.5 0 0 1-.248.432l-1.813 1.059-.568 1.415.551 2.004a.5.5 0 0 1-.128.487l-1.018 1.015a.5.5 0 0 1-.486.128l-2.023-.558-1.352.563-1.08 1.864a.5.5 0 0 1-.433.25H8.59a.5.5 0 0 1-.433-.25l-1.076-1.864-1.34-.563-2.026.558a.5.5 0 0 1-.487-.13l-1.012-1.014a.5.5 0 0 1-.128-.485l.548-2.005-.544-1.415-1.841-1.06A.5.5 0 0 1 0 10.075V8.65a.5.5 0 0 1 .25-.433L2.047 7.18l.589-1.43-.549-2.026a.5.5 0 0 1 .132-.486l1.01-.997a.5.5 0 0 1 .483-.126l2.03.551z"/>
        <circle cx="9.5" cy="9.5" r="3.75"/>
    </g>
</svg>
