<?xml version="1.0" encoding="UTF-8"?>
<svg width="20px" height="22px" viewBox="0 0 20 22" version="1.1" xmlns="http://www.w3.org/2000/svg" xmlns:xlink="http://www.w3.org/1999/xlink">
    <title>9072A8FD-F97D-4200-9281-970F6B63B615</title>
    <g id="Design-Kit" stroke="none" stroke-width="1" fill="none" fill-rule="evenodd">
        <g id="Iconography" transform="translate(-342.000000, -1002.000000)" fill="#168281" fill-rule="nonzero">
            <path d="M352,1020 C352.552285,1020 353,1019.55228 353,1019 C353,1018.44772 352.552285,1018 352,1018 C351.447715,1018 351,1018.44772 351,1019 C351,1019.55228 351.447715,1020 352,1020 Z M357,1020 C357.552285,1020 358,1019.55228 358,1019 C358,1018.44772 357.552285,1018 357,1018 C356.447715,1018 356,1018.44772 356,1019 C356,1019.55228 356.447715,1020 357,1020 Z M357,1016 C357.552285,1016 358,1015.55228 358,1015 C358,1014.44772 357.552285,1014 357,1014 C356.447715,1014 356,1014.44772 356,1015 C356,1015.55228 356.447715,1016 357,1016 Z M352,1016 C352.552285,1016 353,1015.55228 353,1015 C353,1014.44772 352.552285,1014 352,1014 C351.447715,1014 351,1014.44772 351,1015 C351,1015.55228 351.447715,1016 352,1016 Z M359,1004 L358,1004 L358,1003 C358,1002.44772 357.552285,1002 357,1002 C356.447715,1002 356,1002.44772 356,1003 L356,1004 L348,1004 L348,1003 C348,1002.44772 347.552285,1002 347,1002 C346.447715,1002 346,1002.44772 346,1003 L346,1004 L345,1004 C343.343146,1004 342,1005.34315 342,1007 L342,1021 C342,1022.65685 343.343146,1024 345,1024 L359,1024 C360.656854,1024 362,1022.65685 362,1021 L362,1007 C362,1005.34315 360.656854,1004 359,1004 Z M360,1021 C360,1021.55228 359.552285,1022 359,1022 L345,1022 C344.447715,1022 344,1021.55228 344,1021 L344,1012 L360,1012 L360,1021 Z M360,1010 L344,1010 L344,1007 C344,1006.44772 344.447715,1006 345,1006 L346,1006 L346,1007 C346,1007.55228 346.447715,1008 347,1008 C347.552285,1008 348,1007.55228 348,1007 L348,1006 L356,1006 L356,1007 C356,1007.55228 356.447715,1008 357,1008 C357.552285,1008 358,1007.55228 358,1007 L358,1006 L359,1006 C359.552285,1006 360,1006.44772 360,1007 L360,1010 Z M347,1016 C347.552285,1016 348,1015.55228 348,1015 C348,1014.44772 347.552285,1014 347,1014 C346.447715,1014 346,1014.44772 346,1015 C346,1015.55228 346.447715,1016 347,1016 Z M347,1020 C347.552285,1020 348,1019.55228 348,1019 C348,1018.44772 347.552285,1018 347,1018 C346.447715,1018 346,1018.44772 346,1019 C346,1019.55228 346.447715,1020 347,1020 Z" id="Shape"></path>
        </g>
    </g>
</svg>