<svg width="26" height="24" viewBox="0 0 26 24" xmlns="http://www.w3.org/2000/svg">
    <g fill="#FFF" fill-rule="nonzero">
        <path d="M3.967 15.5a3.146 3.146 0 0 1-2.907-1.938 3.137 3.137 0 0 1 .682-3.423 3.15 3.15 0 0 1 3.429-.681 3.14 3.14 0 0 1 1.942 2.902 3.147 3.147 0 0 1-3.146 3.14zm0-5.508c-.96 0-1.824.577-2.191 1.462a2.365 2.365 0 0 0 .514 2.58c.678.677 1.698.88 2.585.513a2.368 2.368 0 0 0-.908-4.555zM3.967 23.897A3.146 3.146 0 0 1 1.06 21.96a3.137 3.137 0 0 1 .682-3.423 3.15 3.15 0 0 1 3.429-.681 3.14 3.14 0 0 1 1.942 2.902 3.147 3.147 0 0 1-3.146 3.14zm0-5.508c-.96 0-1.824.577-2.191 1.462a2.365 2.365 0 0 0 .514 2.58c.678.677 1.698.88 2.584.513a2.368 2.368 0 0 0 1.464-2.187 2.372 2.372 0 0 0-2.37-2.366v-.002z"/>
        <path d="M3.967 9.992a.387.387 0 0 1-.387-.386V6.715a.387.387 0 0 1 .774 0v2.89a.386.386 0 0 1-.387.387zM3.967 18.39a.387.387 0 0 1-.387-.386v-2.89a.387.387 0 0 1 .774 0v2.89a.387.387 0 0 1-.387.387z"/>
        <path d="M3.967 7.102A3.143 3.143 0 0 1 .821 3.96 3.143 3.143 0 0 1 3.967.821a3.143 3.143 0 0 1 3.146 3.14 3.147 3.147 0 0 1-3.146 3.14zm0-5.508A2.37 2.37 0 0 0 1.596 3.96a2.37 2.37 0 0 0 2.371 2.367 2.37 2.37 0 0 0 2.371-2.367 2.372 2.372 0 0 0-2.37-2.366v-.001zM25.22 6.63H8.357a.387.387 0 0 1-.388-.387V1.681c0-.213.174-.386.388-.386H25.22c.213 0 .387.173.387.386v4.562a.387.387 0 0 1-.387.387zM8.744 5.857h16.088v-3.79H8.744v3.79zM25.22 15.035H8.357a.387.387 0 0 1-.388-.387v-4.562c0-.213.174-.386.388-.386H25.22c.213 0 .387.173.387.386v4.562a.387.387 0 0 1-.387.387zm-16.476-.773h16.088v-3.79H8.744v3.79zM25.22 23.425H8.357a.387.387 0 0 1-.388-.387v-4.562c0-.214.174-.387.388-.387H25.22c.213 0 .387.173.387.387v4.562a.387.387 0 0 1-.387.387zM8.744 22.65h16.088v-3.789H8.744v3.79z"/>
        <path d="M23.128 4.349h-12.87a.387.387 0 1 1 0-.773h12.87a.387.387 0 1 1 0 .773zM23.128 12.746h-12.87a.387.387 0 1 1 0-.773h12.87a.387.387 0 1 1 0 .773zM23.128 21.144h-12.87a.387.387 0 1 1 0-.774h12.87a.387.387 0 1 1 0 .774z"/>
    </g>
</svg>
