<svg width="24" height="28" viewBox="0 0 24 28" xmlns="http://www.w3.org/2000/svg">
    <g fill="#FFF" fill-rule="nonzero">
        <path d="M9.92 6.432a.612.612 0 0 1-.386-.138.58.58 0 0 1-.213-.449V3.267c0-.155.064-.306.176-.415a.613.613 0 0 1 .425-.171h3.729c.158 0 .313.062.425.171.112.109.176.26.176.415v2.578a.579.579 0 0 1-.214.449.618.618 0 0 1-.49.13 10.712 10.712 0 0 0-3.524 0 .602.602 0 0 1-.103.008zm.603-2.58v1.32c.835-.09 1.691-.09 2.526 0v-1.32h-2.526zM19.428 9.313a.607.607 0 0 1-.42-.167c-.51-.485-1.072-.92-1.67-1.292A.575.575 0 0 1 17.186 7l1.315-1.654a.603.603 0 0 1 .476-.227c.134 0 .261.043.368.123l1.782 1.347a.578.578 0 0 1 .106.823l-1.33 1.674a.604.604 0 0 1-.434.225c-.013.002-.027.002-.041.002zm-.899-2.088c.284.2.56.414.825.637l.561-.705-.832-.629-.554.697z"/>
        <path d="M11.786 27.607c-1.218 0-2.417-.184-3.565-.548a11.61 11.61 0 0 1-3.113-1.527.575.575 0 0 1-.142-.818.61.61 0 0 1 .84-.138 10.451 10.451 0 0 0 5.98 1.858c2.76 0 5.356-1.048 7.309-2.952 1.952-1.904 3.027-4.435 3.028-7.127A9.872 9.872 0 0 0 20.543 11a.572.572 0 0 1-.077-.442.585.585 0 0 1 .266-.366.61.61 0 0 1 .83.184 11.004 11.004 0 0 1 1.763 5.98c0 1.519-.305 2.992-.907 4.379-.29.667-.647 1.31-1.064 1.91a11.377 11.377 0 0 1-1.408 1.666 11.621 11.621 0 0 1-8.16 3.296zm-8.512-3.968a.606.606 0 0 1-.469-.218.577.577 0 0 1 .09-.824.609.609 0 0 1 .846.086.578.578 0 0 1-.09.825.613.613 0 0 1-.377.13zm-1.547-2.504a.602.602 0 0 1-.553-.355 11.014 11.014 0 0 1-.195-8.375 11.148 11.148 0 0 1 2.016-3.337A11.5 11.5 0 0 1 6.03 6.602 11.633 11.633 0 0 1 9.82 5.268a11.96 11.96 0 0 1 3.932 0 11.703 11.703 0 0 1 4.233 1.597c.667.415 1.294.9 1.863 1.442a.577.577 0 0 1 .01.83.601.601 0 0 1-.43.176.605.605 0 0 1-.42-.167 10.383 10.383 0 0 0-5.459-2.723 10.712 10.712 0 0 0-3.525 0c-4.97.833-8.575 5.01-8.574 9.932 0 1.376.28 2.71.83 3.963a.582.582 0 0 1-.316.77.605.605 0 0 1-.237.047z"/>
        <path d="M11.786 24.456a8.44 8.44 0 0 1-4.644-1.384 8.307 8.307 0 0 1-2.244-2.188 8.063 8.063 0 0 1-.766-1.375 7.872 7.872 0 0 1-.653-3.153c0-1.056.205-2.083.61-3.052a8.039 8.039 0 0 1 1.67-2.522.605.605 0 0 1 .436-.183c.154 0 .302.057.414.16.24.223.25.595.022.83a6.803 6.803 0 0 0 .132 9.665 7.157 7.157 0 0 0 5.023 2.03 7.158 7.158 0 0 0 5.024-2.03 6.804 6.804 0 0 0 0-9.797 7.154 7.154 0 0 0-5.25-2.026.605.605 0 0 1-.438-.164.576.576 0 0 1-.182-.404v-.015a.573.573 0 0 1 .167-.41.605.605 0 0 1 .415-.179 8.44 8.44 0 0 1 4.909 1.38 8.307 8.307 0 0 1 2.243 2.187 7.884 7.884 0 0 1 1.42 4.53c0 1.093-.22 2.154-.653 3.153a8.03 8.03 0 0 1-.767 1.375 8.207 8.207 0 0 1-2.243 2.188 8.383 8.383 0 0 1-4.645 1.384zM8.63 10.085a.602.602 0 0 1-.548-.346.567.567 0 0 1-.014-.449.589.589 0 0 1 .316-.326.604.604 0 0 1 .795.294.581.581 0 0 1-.302.775.605.605 0 0 1-.247.052z"/>
        <path d="M11.786 18.486a2.199 2.199 0 0 1-1.545-.624 2.09 2.09 0 0 1 0-3.013 2.199 2.199 0 0 1 1.545-.624c.584 0 1.133.221 1.545.624a2.091 2.091 0 0 1 0 3.013c-.412.402-.96.624-1.545.624zm0-3.088a.973.973 0 0 0-.982.958c0 .527.442.956.982.957a.973.973 0 0 0 .982-.957.974.974 0 0 0-.982-.958zM16.137 3.853H7.436a.613.613 0 0 1-.425-.171.584.584 0 0 1-.176-.415V.843c0-.154.064-.306.176-.415a.614.614 0 0 1 .425-.172h8.7c.159 0 .314.063.426.172.112.11.176.26.176.415v2.424a.582.582 0 0 1-.176.414.611.611 0 0 1-.425.172zm-8.1-1.172h7.498V1.429H8.037v1.252z"/>
        <path d="M10.32 15.398a.605.605 0 0 1-.425-.172l-2.255-2.2a.578.578 0 0 1 0-.828.605.605 0 0 1 .426-.172c.16 0 .311.06.425.172l2.255 2.199a.575.575 0 0 1 0 .829.605.605 0 0 1-.425.172z"/>
    </g>
</svg>
