<?xml version="1.0" encoding="UTF-8"?>
<svg width="25px" height="29px" viewBox="0 0 25 29" version="1.1" xmlns="http://www.w3.org/2000/svg" xmlns:xlink="http://www.w3.org/1999/xlink">
    <title>3DD5CE4D-95FA-4F75-BA8D-D5936E3B4E55</title>
    <g id="Save-Homes" stroke="none" stroke-width="1" fill="none" fill-rule="evenodd">
        <g id="Saved-Homes---Edit-Homes-Drop-down)---Desktop" transform="translate(-1339.000000, -249.000000)" fill="#3A383C" fill-rule="nonzero">
            <g id="trash" transform="translate(1339.000000, 249.000000)">
                <path d="M17.1363636,24.3863636 C17.5005333,24.3863636 17.7954545,24.029504 17.7954545,23.5888525 L17.7954545,10.0247838 C17.7954545,9.58413236 17.5005333,9.22727273 17.1363636,9.22727273 C16.7721939,9.22727273 16.4772727,9.58413236 16.4772727,10.0247838 L16.4772727,23.5888525 C16.4772727,24.029504 16.7721939,24.3863636 17.1363636,24.3863636 Z" id="Path"></path>
                <path d="M12.5227273,24.3863636 C12.886897,24.3863636 13.1818182,24.029504 13.1818182,23.5888525 L13.1818182,10.0247838 C13.1818182,9.58413236 12.886897,9.22727273 12.5227273,9.22727273 C12.1585576,9.22727273 11.8636364,9.58413236 11.8636364,10.0247838 L11.8636364,23.5888525 C11.8636364,24.029504 12.1585576,24.3863636 12.5227273,24.3863636 Z" id="Path"></path>
                <path d="M7.90909091,24.3863636 C8.27326061,24.3863636 8.56818182,24.029504 8.56818182,23.5888525 L8.56818182,10.0247838 C8.56818182,9.58413236 8.27326061,9.22727273 7.90909091,9.22727273 C7.54492121,9.22727273 7.25,9.58413236 7.25,10.0247838 L7.25,23.5888525 C7.25,24.029504 7.5445697,24.3863636 7.90909091,24.3863636 Z" id="Path"></path>
                <path d="M14.4712739,0 L9.91551834,0 C8.21664582,0 6.8336333,1.28316304 6.8336333,2.85920332 L6.8336333,4.56407523 L0.803578704,4.56407523 C0.359574684,4.56407523 0,4.92437435 0,5.36927292 C0,5.81417148 0.359574684,6.17447061 0.803578704,6.17447061 L2.27830634,6.17447061 L2.27830634,25.9114764 C2.27830634,27.6146305 3.66046171,29 5.35933423,29 L19.0266008,29 C20.7263305,29 22.1089144,27.6146305 22.1089144,25.9114764 L22.1089144,6.17447061 L23.5827849,6.17447061 C24.026789,6.17447061 24.3863636,5.81417148 24.3863636,5.36927292 C24.3863636,4.92437435 24.026789,4.56407523 23.5827849,4.56407523 L17.5527303,4.56407523 L17.5527303,2.85920332 C17.5527303,1.28316304 16.1701464,0 14.4712739,0 Z M8.44121928,2.85920332 C8.44121928,2.18283726 9.11622539,1.61039538 9.91594692,1.61039538 L14.4712739,1.61039538 C15.2709954,1.61039538 15.9460015,2.18283726 15.9460015,2.85920332 L15.9460015,4.56407523 L8.44121928,4.56407523 L8.44121928,2.85920332 Z M20.501757,25.9114764 C20.501757,26.7261217 19.8396082,27.3896046 19.0266008,27.3896046 L5.35933423,27.3896046 C4.54632687,27.3896046 3.88546375,26.7261217 3.88546375,25.9114764 L3.88546375,6.17447061 L20.501757,6.17447061 L20.501757,25.9114764 Z" id="Shape"></path>
            </g>
        </g>
    </g>
</svg>