<svg width="22" height="15" viewBox="0 0 22 15" xmlns="http://www.w3.org/2000/svg">
    <g fill="none" fill-rule="evenodd">
        <path d="M0-3h22v22H0z"/>
        <path d="M22 7.5S17.875 0 11 0 0 7.5 0 7.5 4.125 15 11 15s11-7.5 11-7.5zm-20.387 0a17.938 17.938 0 0 1 2.282-2.786c1.77-1.758 4.19-3.35 7.105-3.35s5.334 1.592 7.106 3.35c.853.85 1.618 1.784 2.282 2.786-.08.119-.167.25-.268.393a18.017 18.017 0 0 1-2.014 2.393c-1.772 1.758-4.192 3.35-7.106 3.35-2.915 0-5.334-1.592-7.106-3.35A17.94 17.94 0 0 1 1.611 7.5h.002z" fill="#115E67" fill-rule="nonzero"/>
        <path d="M11 4.09c-1.898 0-3.438 1.527-3.438 3.41 0 1.883 1.54 3.41 3.438 3.41 1.898 0 3.438-1.527 3.438-3.41 0-1.883-1.54-3.41-3.438-3.41zM6.187 7.5c0-2.636 2.155-4.773 4.813-4.773s4.813 2.137 4.813 4.773c0 2.636-2.155 4.773-4.813 4.773S6.187 10.136 6.187 7.5z" fill="#115E67" fill-rule="nonzero"/>
    </g>
</svg>
