<svg width="25" height="32" viewBox="0 0 25 32" xmlns="http://www.w3.org/2000/svg">
    <g fill="#FFF" fill-rule="nonzero">
        <path d="M7.201 12.609c-1.583.363-2.966 1.136-4.151 2.246.807.794 1.597 1.57 2.39 2.353 2.89-2.42 6.51-1.655 8.445.314 1.885 1.917 2.687 5.45.243 8.401l2.403 2.38c2.704-3.193 3.203-6.749 1.574-10.678l2.484-.129c-.093 1.185-.184 2.323-.272 3.46-.108 1.397-.229 2.793-.317 4.19-.041.672.267 1.199.825 1.561 1.25.813 2.776-.034 2.882-1.587.065-.948.137-1.895.212-2.84.178-2.223.379-4.445.533-6.669.077-1.119-.767-1.961-1.9-1.938-.843.018-1.685.088-2.528.134l-3.997.218c.164-.199.253-.313.349-.422 1.053-1.202 2.11-2.402 3.161-3.605.974-1.112.737-2.655-.532-3.398A2308.16 2308.16 0 0 0 10.8 1.832c-.897-.52-1.67-.421-2.442.27L4.445 5.595c-.861.77-.976 1.883-.276 2.692.713.824 1.849.867 2.732.09.94-.828 1.866-1.67 2.808-2.492.105-.091.323-.191.411-.144.826.454 1.636.937 2.476 1.427-1.38 1.571-2.734 3.09-4.056 4.636-.37.432-.774.675-1.339.804M15.359 29.298c-.763-.753-1.517-1.506-2.291-2.24-.062-.06-.279-.023-.383.038a6.198 6.198 0 0 1-4.17.796c-3.3-.494-5.71-3.86-5.026-7.131.172-.822.543-1.604.825-2.414L2.016 16.04c-2.656 3.138-2.962 8.767.75 12.51 3.733 3.762 9.416 3.448 12.593.749M23.617 3.122c0-1.72-1.385-3.118-3.088-3.122a3.118 3.118 0 0 0-3.143 3.115c-.004 1.684 1.418 3.108 3.113 3.117 1.686.01 3.12-1.42 3.118-3.11z"/>
    </g>
</svg>
